<svg xmlns="http://www.w3.org/2000/svg" xmlns:xlink="http://www.w3.org/1999/xlink" width="47.8" height="7.997" viewBox="0 0 12.647 2.116"><defs><linearGradient xlink:href="#a" id="b" x1="0" y1="36.973" x2="437.304" y2="36.973" gradientUnits="userSpaceOnUse" gradientTransform="matrix(.029 0 0 .029 131.242 64.695)"/><linearGradient id="a"><stop style="stop-color:#004799;stop-opacity:1" offset="0"/><stop style="stop-color:#006be6;stop-opacity:1" offset="0.5"/><stop style="stop-color:#4da0ff;stop-opacity:1" offset="1"/></linearGradient></defs><path d="M138.526 66.22h-1.143v-.26h.977l-.118.104a.687.687 0 0 0-.01-.097q-.014-.066-.04-.118-.043-.087-.123-.133a.328.328 0 0 0-.098-.037q-.045-.01-.098-.01-.12 0-.21.053-.09.052-.14.146-.05.094-.05.225a.553.553 0 0 0 .012.119.433.433 0 0 0 .04.11q.053.098.148.152.096.054.22.054a.535.535 0 0 0 .144-.02.481.481 0 0 0 .055-.018q.091-.038.156-.11l.202.206q-.1.118-.246.18-.145.06-.308.06a.794.794 0 0 1-.238-.035.707.707 0 0 1-.137-.06q-.167-.093-.264-.26a.71.71 0 0 1-.096-.331.85.85 0 0 1 0-.04.76.76 0 0 1 .034-.234.682.682 0 0 1 .06-.134q.096-.164.26-.26.164-.095.364-.095.194 0 .344.09.15.09.235.246a.7.7 0 0 1 .08.265.87.87 0 0 1 .005.092q0 .034-.004.07zm5.364 0h-1.142v-.26h.977l-.12.104a.687.687 0 0 0-.01-.097q-.012-.066-.038-.118-.044-.087-.124-.133a.328.328 0 0 0-.098-.037q-.045-.01-.097-.01-.122 0-.212.053-.09.052-.14.146-.05.094-.05.225a.553.553 0 0 0 .014.119.433.433 0 0 0 .04.11q.052.098.148.152.095.054.22.054a.535.535 0 0 0 .143-.02.481.481 0 0 0 .056-.018q.09-.038.155-.11l.203.206q-.102.118-.247.18-.145.06-.307.06a.794.794 0 0 1-.24-.035.707.707 0 0 1-.136-.06q-.166-.093-.264-.26a.71.71 0 0 1-.096-.331.85.85 0 0 1 0-.04.76.76 0 0 1 .035-.234.682.682 0 0 1 .06-.134q.096-.164.26-.26.163-.095.363-.095.195 0 .344.09.15.09.235.246a.7.7 0 0 1 .08.265.87.87 0 0 1 .005.092q0 .034-.004.07-.004.037-.013.08zm-12.63.264.226-.226a.67.67 0 0 0 .118.13.587.587 0 0 0 .082.06q.116.068.296.068.125 0 .213-.038a.33.33 0 0 0 .055-.032.237.237 0 0 0 .068-.07q.03-.047.032-.108a.287.287 0 0 0 0-.013.322.322 0 0 0-.007-.072.224.224 0 0 0-.045-.093.376.376 0 0 0-.083-.075.478.478 0 0 0-.054-.03 1.32 1.32 0 0 0-.114-.05 1.598 1.598 0 0 0-.075-.026q-.103-.034-.206-.076-.103-.042-.188-.106-.086-.063-.138-.165-.043-.084-.05-.206a.858.858 0 0 1-.002-.052q0-.18.088-.306a.558.558 0 0 1 .218-.183.67.67 0 0 1 .02-.01.784.784 0 0 1 .24-.062.96.96 0 0 1 .098-.004.875.875 0 0 1 .206.023.724.724 0 0 1 .152.055.822.822 0 0 1 .159.102.69.69 0 0 1 .098.098l-.227.226a.749.749 0 0 0-.08-.08q-.05-.04-.1-.066a.44.44 0 0 0-.143-.043.56.56 0 0 0-.074-.005.603.603 0 0 0-.092.006q-.087.014-.144.055a.194.194 0 0 0-.084.14.259.259 0 0 0-.002.03.268.268 0 0 0 .008.065.19.19 0 0 0 .044.085.372.372 0 0 0 .07.058.509.509 0 0 0 .068.038 1.809 1.809 0 0 0 .11.046 2.244 2.244 0 0 0 .078.028q.103.035.207.078.103.044.188.112a.488.488 0 0 1 .12.143.581.581 0 0 1 .018.032q.043.09.05.216a.926.926 0 0 1 .002.054.622.622 0 0 1-.03.196.51.51 0 0 1-.163.236.659.659 0 0 1-.251.127q-.098.026-.214.03a1.277 1.277 0 0 1-.056.002 1.113 1.113 0 0 1-.183-.014q-.106-.018-.193-.057a.661.661 0 0 1-.032-.016.884.884 0 0 1-.224-.166 1.095 1.095 0 0 1-.078-.09zm2.774-.27v-.81h.32v.796a.516.516 0 0 0 .004.078q.007.042.02.077a.295.295 0 0 0 .008.018q.034.07.099.109a.276.276 0 0 0 .09.032.37.37 0 0 0 .065.005q.14 0 .213-.082.063-.07.073-.19a.573.573 0 0 0 0-.047v-.795h.32v.81a.735.735 0 0 1-.02.168.584.584 0 0 1-.057.152q-.077.138-.213.214a.593.593 0 0 1-.213.07.76.76 0 0 1-.103.007.682.682 0 0 1-.182-.023.579.579 0 0 1-.133-.055q-.137-.078-.214-.216a.605.605 0 0 1-.07-.22.766.766 0 0 1-.007-.098zm6.036.584h-.317v-.803a.358.358 0 0 0-.016-.111.297.297 0 0 0-.072-.118.297.297 0 0 0-.194-.088.403.403 0 0 0-.034-.002.362.362 0 0 0-.095.012.307.307 0 0 0-.07.029q-.073.04-.113.113-.04.072-.04.165l-.125-.07a.623.623 0 0 1 .02-.16.52.52 0 0 1 .05-.122q.07-.123.192-.194a.536.536 0 0 1 .244-.07.644.644 0 0 1 .033-.001.523.523 0 0 1 .177.029.477.477 0 0 1 .101.05q.122.08.192.206t.07.263zm-3.175-2.087v2.087h-.319v-.374l.055-.34-.055-.335v-1.04zm-3.391 2.086h-.318v-1.971h.318zm7.405 0h-.319v-1.971h.32zm-4.207-.896v.4a.548.548 0 0 1-.025.168.488.488 0 0 1-.046.102q-.07.119-.196.187a.558.558 0 0 1-.21.065.694.694 0 0 1-.074.003q-.189 0-.34-.095-.153-.096-.242-.26a.742.742 0 0 1-.086-.304.892.892 0 0 1-.002-.063q0-.205.088-.37.09-.163.241-.26.152-.097.34-.097a.635.635 0 0 1 .16.019.526.526 0 0 1 .124.049q.123.068.195.187a.498.498 0 0 1 .072.232.604.604 0 0 1 0 .037zm2.415.896h-.319v-1.391h.32zm2.677 0h-.32v-1.391h.32zm-5.59-.272a.445.445 0 0 0 .107-.013.357.357 0 0 0 .1-.04q.088-.055.137-.15a.44.44 0 0 0 .044-.142.566.566 0 0 0 .005-.08q0-.123-.049-.22-.05-.095-.137-.15a.37.37 0 0 0-.155-.05.466.466 0 0 0-.05-.002.445.445 0 0 0-.108.013.357.357 0 0 0-.1.04q-.088.054-.139.15a.433.433 0 0 0-.045.145.552.552 0 0 0-.005.075q0 .125.05.22.051.096.14.15a.37.37 0 0 0 .155.05.466.466 0 0 0 .05.004zm-2.366-.83h-.986v-.29h.986zm7.405 0h-.986v-.29h.986zm.55.328-.11-.055a.97.97 0 0 1 .016-.177q.019-.104.063-.187a.542.542 0 0 1 .039-.063.38.38 0 0 1 .257-.157.588.588 0 0 1 .098-.007.498.498 0 0 1 .111.012.414.414 0 0 1 .078.025.405.405 0 0 1 .095.06.545.545 0 0 1 .061.062l-.209.214q-.037-.04-.084-.058a.264.264 0 0 0-.053-.013.362.362 0 0 0-.054-.004.347.347 0 0 0-.108.016.288.288 0 0 0-.112.068.256.256 0 0 0-.063.1q-.014.04-.02.09a.625.625 0 0 0-.004.074z" vector-effect="non-scaling-stroke" font-size="12" style="fill:url(#b);fill-opacity:1;stroke:none;stroke-width:.0273998;stroke-miterlimit:4;stroke-dasharray:none;stroke-opacity:1" transform="translate(-131.26 -64.71)"/></svg>