<svg xmlns="http://www.w3.org/2000/svg" xmlns:xlink="http://www.w3.org/1999/xlink" width="45.354" height="101.883" viewBox="0 0 12 26.957"><defs><linearGradient id="f"><stop style="stop-color:#0059bf;stop-opacity:1" offset="0"/><stop style="stop-color:#004799;stop-opacity:1" offset="1"/></linearGradient><linearGradient id="e"><stop style="stop-color:#004799;stop-opacity:1" offset="0"/><stop style="stop-color:#0059bf;stop-opacity:1" offset="1"/></linearGradient><linearGradient id="d"><stop style="stop-color:#0059bf;stop-opacity:1" offset="0"/><stop style="stop-color:#07f;stop-opacity:1" offset="1"/></linearGradient><linearGradient id="c"><stop style="stop-color:#07f;stop-opacity:1" offset="0"/><stop style="stop-color:#0059bf;stop-opacity:1" offset="1"/></linearGradient><linearGradient id="b"><stop style="stop-color:#07f;stop-opacity:1" offset="0"/><stop style="stop-color:#4da0ff;stop-opacity:1" offset="1"/></linearGradient><linearGradient id="a"><stop style="stop-color:#4da0ff;stop-opacity:1" offset="0"/><stop style="stop-color:#07f;stop-opacity:1" offset="1"/></linearGradient><linearGradient xlink:href="#a" id="k" x1="8.854" y1="15.76" x2="22.736" y2="15.76" gradientUnits="userSpaceOnUse"/><linearGradient xlink:href="#b" id="l" x1="8.854" y1="18.76" x2="22.736" y2="18.76" gradientUnits="userSpaceOnUse"/><linearGradient xlink:href="#c" id="i" x1="-22.736" y1="6.858" x2="-8.854" y2="6.858" gradientUnits="userSpaceOnUse"/><linearGradient xlink:href="#d" id="j" x1="-22.736" y1="9.858" x2="-8.854" y2="9.858" gradientUnits="userSpaceOnUse"/><linearGradient xlink:href="#e" id="h" x1="8.854" y1="32.717" x2="22.736" y2="32.717" gradientUnits="userSpaceOnUse"/><linearGradient xlink:href="#f" id="g" x1="8.854" y1="29.717" x2="22.736" y2="29.717" gradientUnits="userSpaceOnUse"/></defs><path style="fill:url(#g);fill-opacity:1;stroke-width:.203608" transform="matrix(.86446 -.5027 0 1 -7.654 -2.82)" d="M8.854 28.206h13.882v3.022H8.854z"/><path style="fill:url(#h);fill-opacity:1;stroke-width:.203608" transform="matrix(.86446 -.5027 0 1 -7.654 -2.82)" d="M8.854 31.206h13.882v3.022H8.854z"/><path style="fill:url(#i);fill-opacity:1;stroke-width:.203608" transform="matrix(-.86446 -.5027 0 1 -7.654 -2.82)" d="M-22.736 5.347h13.882v3.022h-13.882z"/><path style="fill:url(#j);fill-opacity:1;stroke-width:.203608" transform="matrix(-.86446 -.5027 0 1 -7.654 -2.82)" d="M-22.736 8.347h13.882v3.022h-13.882z"/><path style="fill:url(#k);fill-opacity:1;stroke-width:.203608" transform="matrix(.86446 -.5027 0 1 -7.654 -2.82)" d="M8.854 14.249h13.882v3.022H8.854z"/><path style="fill:url(#l);fill-opacity:1;stroke-width:.203608" transform="matrix(.86446 -.5027 0 1 -7.654 -2.82)" d="M8.854 17.249h13.882v3.022H8.854z"/></svg>