<svg xmlns="http://www.w3.org/2000/svg" xmlns:xlink="http://www.w3.org/1999/xlink" width="10" height="22.321" viewBox="0 0 2.646 5.906"><defs><linearGradient id="d"><stop style="stop-color:#1565c0;stop-opacity:1" offset="0"/><stop style="stop-color:#0d47a1;stop-opacity:1" offset="1"/></linearGradient><linearGradient id="e"><stop style="stop-color:#0d47a1;stop-opacity:1" offset="0"/><stop style="stop-color:#1565c0;stop-opacity:1" offset="1"/></linearGradient><linearGradient id="a"><stop style="stop-color:#2196f3;stop-opacity:1" offset="0"/><stop style="stop-color:#42a5f5;stop-opacity:1" offset="1"/></linearGradient><linearGradient id="f"><stop style="stop-color:#42a5f5;stop-opacity:1" offset="0"/><stop style="stop-color:#2196f3;stop-opacity:1" offset="1"/></linearGradient><linearGradient id="b"><stop style="stop-color:#1e88e5;stop-opacity:1" offset="0"/><stop style="stop-color:#1976d2;stop-opacity:1" offset="1"/></linearGradient><linearGradient id="c"><stop style="stop-color:#1976d2;stop-opacity:1" offset="0"/><stop style="stop-color:#1e88e5;stop-opacity:1" offset="1"/></linearGradient><linearGradient xlink:href="#a" id="l" x1="2.141" y1="3.689" x2="5.196" y2="3.689" gradientUnits="userSpaceOnUse"/><linearGradient xlink:href="#b" id="i" x1="-5.196" y1=".886" x2="-2.141" y2=".886" gradientUnits="userSpaceOnUse"/><linearGradient xlink:href="#c" id="k" x1="-5.196" y1="1.548" x2="-2.141" y2="1.548" gradientUnits="userSpaceOnUse"/><linearGradient xlink:href="#d" id="g" x1="2.141" y1="6.083" x2="5.196" y2="6.083" gradientUnits="userSpaceOnUse"/><linearGradient xlink:href="#e" id="h" x1="2.141" y1="6.744" x2="5.196" y2="6.744" gradientUnits="userSpaceOnUse"/><linearGradient xlink:href="#f" id="j" gradientUnits="userSpaceOnUse" x1="2.141" y1="3.027" x2="5.196" y2="3.027"/></defs><g transform="translate(-1.854 -.098)"><path style="fill:url(#g);fill-opacity:1;stroke-width:0" transform="skewY(-30) scale(.86603 1)" d="M2.141 5.752h3.055v.661H2.141z"/><path style="fill:url(#h);fill-opacity:1;stroke-width:0" transform="skewY(-30) scale(.86603 1)" d="M2.141 6.413h3.055v.661H2.141z"/><path style="fill:url(#i);fill-opacity:1;stroke-width:0" transform="skewY(30) scale(-.86603 1)" d="M-5.196.555h3.055v.661h-3.055z"/><rect style="fill:url(#j);fill-opacity:1;stroke-width:0" width="3.055" height=".661" x="2.141" y="2.697" transform="skewY(-30) scale(.86603 1)" ry="0"/><path style="fill:url(#k);fill-opacity:1;stroke-width:0" transform="skewY(30) scale(-.86603 1)" d="M-5.196 1.217h3.055v.661h-3.055z"/><path style="fill:url(#l);fill-opacity:1;stroke-width:0" transform="skewY(-30) scale(.86603 1)" d="M2.141 3.358h3.055v.661H2.141z"/></g></svg>