<svg xmlns="http://www.w3.org/2000/svg" xmlns:xlink="http://www.w3.org/1999/xlink" width="76.284" height="22.321" viewBox="0 0 20.185 5.906"><defs><linearGradient id="d"><stop style="stop-color:#1565c0;stop-opacity:1" offset="0"/><stop style="stop-color:#0d47a1;stop-opacity:1" offset="1"/></linearGradient><linearGradient id="e"><stop style="stop-color:#0d47a1;stop-opacity:1" offset="0"/><stop style="stop-color:#1565c0;stop-opacity:1" offset="1"/></linearGradient><linearGradient id="a"><stop style="stop-color:#2196f3;stop-opacity:1" offset="0"/><stop style="stop-color:#42a5f5;stop-opacity:1" offset="1"/></linearGradient><linearGradient id="f"><stop style="stop-color:#42a5f5;stop-opacity:1" offset="0"/><stop style="stop-color:#2196f3;stop-opacity:1" offset="1"/></linearGradient><linearGradient id="b"><stop style="stop-color:#1e88e5;stop-opacity:1" offset="0"/><stop style="stop-color:#1976d2;stop-opacity:1" offset="1"/></linearGradient><linearGradient id="c"><stop style="stop-color:#1976d2;stop-opacity:1" offset="0"/><stop style="stop-color:#1e88e5;stop-opacity:1" offset="1"/></linearGradient><linearGradient xlink:href="#a" id="m" x1="2.141" y1="3.689" x2="5.196" y2="3.689" gradientUnits="userSpaceOnUse"/><linearGradient xlink:href="#b" id="j" x1="-5.196" y1=".886" x2="-2.141" y2=".886" gradientUnits="userSpaceOnUse"/><linearGradient xlink:href="#c" id="l" x1="-5.196" y1="1.548" x2="-2.141" y2="1.548" gradientUnits="userSpaceOnUse"/><linearGradient xlink:href="#d" id="h" x1="2.141" y1="6.083" x2="5.196" y2="6.083" gradientUnits="userSpaceOnUse"/><linearGradient xlink:href="#e" id="i" x1="2.141" y1="6.744" x2="5.196" y2="6.744" gradientUnits="userSpaceOnUse"/><linearGradient xlink:href="#f" id="k" gradientUnits="userSpaceOnUse" x1="2.141" y1="3.027" x2="5.196" y2="3.027"/><linearGradient xlink:href="#g" id="n" x1="0" y1="36.973" x2="437.304" y2="36.973" gradientUnits="userSpaceOnUse" gradientTransform="matrix(.029 0 0 .029 5.888 1.88)"/><linearGradient id="g"><stop style="stop-color:#0d47a1;stop-opacity:1" offset="0"/><stop style="stop-color:#42a5f5;stop-opacity:1" offset="1"/></linearGradient></defs><g transform="translate(-.224 -.098)"><path style="fill:url(#h);fill-opacity:1;stroke-width:0" transform="skewY(-30) scale(.86603 1)" d="M2.141 5.752h3.055v.661H2.141Z"/><path style="fill:url(#i);fill-opacity:1;stroke-width:0" transform="skewY(-30) scale(.86603 1)" d="M2.141 6.413h3.055v.661H2.141Z"/><path style="fill:url(#j);fill-opacity:1;stroke-width:0" transform="skewY(30) scale(-.86603 1)" d="M-5.196.555h3.055v.661h-3.055z"/><rect style="fill:url(#k);fill-opacity:1;stroke-width:0" width="3.055" height=".661" x="2.141" y="2.697" transform="skewY(-30) scale(.86603 1)" ry="0"/><path style="fill:url(#l);fill-opacity:1;stroke-width:0" transform="skewY(30) scale(-.86603 1)" d="M-5.196 1.217h3.055v.661h-3.055z"/><path style="fill:url(#m);fill-opacity:1;stroke-width:0" transform="skewY(-30) scale(.86603 1)" d="M2.141 3.358h3.055v.661H2.141Z"/></g><path d="M13.173 3.405H12.03v-.26h.977l-.118.104a.687.687 0 0 0-.011-.097q-.013-.066-.039-.118-.043-.087-.123-.133a.328.328 0 0 0-.098-.037q-.045-.01-.098-.01-.121 0-.211.053-.09.052-.14.146-.049.094-.049.225a.553.553 0 0 0 .012.119.433.433 0 0 0 .04.11q.053.098.148.152.096.054.22.054a.535.535 0 0 0 .144-.019.481.481 0 0 0 .055-.019q.091-.038.156-.11l.202.206q-.101.118-.246.18-.145.06-.308.06a.794.794 0 0 1-.238-.035.707.707 0 0 1-.137-.059q-.167-.094-.264-.26a.71.71 0 0 1-.096-.332.85.85 0 0 1-.001-.039.76.76 0 0 1 .035-.235.682.682 0 0 1 .06-.134q.096-.164.26-.26.164-.095.364-.095.194 0 .344.09.15.09.235.246a.7.7 0 0 1 .08.265.87.87 0 0 1 .005.092q0 .034-.004.07l-.013.08zm5.364 0h-1.142v-.26h.977l-.119.104a.687.687 0 0 0-.011-.097q-.012-.066-.038-.118-.044-.087-.124-.133a.328.328 0 0 0-.098-.037q-.045-.01-.097-.01-.122 0-.212.053-.09.052-.14.146-.049.094-.049.225a.553.553 0 0 0 .013.119.433.433 0 0 0 .04.11q.052.098.148.152.095.054.22.054a.535.535 0 0 0 .143-.019.481.481 0 0 0 .056-.019q.09-.038.155-.11l.203.206q-.102.118-.247.18-.145.06-.307.06a.794.794 0 0 1-.239-.035.707.707 0 0 1-.137-.059q-.166-.094-.264-.26a.71.71 0 0 1-.096-.332.85.85 0 0 1 0-.039.76.76 0 0 1 .035-.235.682.682 0 0 1 .06-.134q.096-.164.26-.26.163-.095.363-.095.195 0 .344.09.15.09.235.246a.7.7 0 0 1 .08.265.87.87 0 0 1 .005.092q0 .034-.004.07-.004.037-.013.08zm-12.63.264.225-.226a.67.67 0 0 0 .118.131.587.587 0 0 0 .082.059q.116.068.296.068.125 0 .213-.038a.33.33 0 0 0 .055-.032.237.237 0 0 0 .068-.069q.03-.048.032-.109a.287.287 0 0 0 0-.013.322.322 0 0 0-.007-.072.224.224 0 0 0-.045-.093.376.376 0 0 0-.083-.075.478.478 0 0 0-.054-.03 1.32 1.32 0 0 0-.114-.05 1.598 1.598 0 0 0-.075-.026q-.103-.034-.206-.076-.103-.042-.188-.106-.086-.063-.138-.165-.043-.084-.05-.206a.858.858 0 0 1-.002-.052q0-.18.088-.306A.558.558 0 0 1 6.34 2a.67.67 0 0 1 .021-.01.784.784 0 0 1 .24-.062.961.961 0 0 1 .097-.004.875.875 0 0 1 .206.023.724.724 0 0 1 .152.055.822.822 0 0 1 .159.102.69.69 0 0 1 .098.098l-.227.226a.749.749 0 0 0-.08-.079q-.05-.041-.1-.067a.44.44 0 0 0-.143-.043.56.56 0 0 0-.074-.005.603.603 0 0 0-.092.006q-.087.014-.144.055a.194.194 0 0 0-.084.14.259.259 0 0 0-.002.03.268.268 0 0 0 .008.065.19.19 0 0 0 .044.085.372.372 0 0 0 .07.058.509.509 0 0 0 .068.038 1.809 1.809 0 0 0 .11.046 2.244 2.244 0 0 0 .078.028q.103.035.207.078.103.044.188.112a.488.488 0 0 1 .12.143.581.581 0 0 1 .018.032q.043.09.05.216a.926.926 0 0 1 .002.054.622.622 0 0 1-.03.196.51.51 0 0 1-.163.236.659.659 0 0 1-.251.127q-.098.026-.214.031a1.277 1.277 0 0 1-.056.001 1.113 1.113 0 0 1-.183-.014q-.106-.018-.193-.057a.661.661 0 0 1-.032-.016.884.884 0 0 1-.224-.166 1.095 1.095 0 0 1-.078-.089ZM8.68 3.4V2.59h.32v.795a.516.516 0 0 0 .004.078q.007.042.02.077a.295.295 0 0 0 .008.018q.034.07.099.109a.276.276 0 0 0 .091.032.37.37 0 0 0 .064.005q.14 0 .213-.082.063-.07.073-.19a.573.573 0 0 0 .001-.047V2.59h.32v.81a.735.735 0 0 1-.02.168.584.584 0 0 1-.058.152q-.077.138-.213.214a.593.593 0 0 1-.213.07.76.76 0 0 1-.103.007.682.682 0 0 1-.182-.023.579.579 0 0 1-.133-.055q-.137-.078-.214-.216a.605.605 0 0 1-.07-.22.766.766 0 0 1-.007-.098Zm6.037.583H14.4V3.18a.358.358 0 0 0-.016-.111.297.297 0 0 0-.072-.118.297.297 0 0 0-.194-.088.403.403 0 0 0-.034-.002.362.362 0 0 0-.095.012.307.307 0 0 0-.07.029q-.073.04-.113.113-.04.072-.04.165l-.125-.07a.623.623 0 0 1 .02-.159.52.52 0 0 1 .05-.123q.069-.123.192-.194a.536.536 0 0 1 .244-.07.644.644 0 0 1 .033-.001.523.523 0 0 1 .177.029.477.477 0 0 1 .101.05q.122.08.192.206t.07.263zm-3.175-2.087v2.087h-.319v-.374l.055-.339-.055-.336V1.895ZM8.15 3.982h-.318V2.011h.318zm7.406 0h-.319V2.011h.32zm-4.207-.896v.4a.548.548 0 0 1-.025.168.488.488 0 0 1-.046.102q-.071.119-.196.187a.558.558 0 0 1-.211.065.694.694 0 0 1-.073.003q-.189 0-.34-.095-.153-.096-.242-.26a.742.742 0 0 1-.086-.304.892.892 0 0 1-.002-.063q0-.205.088-.37.089-.163.241-.26t.34-.097a.635.635 0 0 1 .16.019.526.526 0 0 1 .124.049q.123.068.195.187a.498.498 0 0 1 .072.232.604.604 0 0 1 0 .037zm2.415.896h-.319V2.591h.32zm2.677 0h-.32V2.591h.32zm-5.59-.272a.445.445 0 0 0 .107-.013.357.357 0 0 0 .1-.04q.088-.055.137-.15a.44.44 0 0 0 .044-.142.566.566 0 0 0 .005-.079q0-.124-.049-.22-.05-.096-.137-.15a.37.37 0 0 0-.155-.05.466.466 0 0 0-.05-.003.445.445 0 0 0-.108.013.357.357 0 0 0-.1.04q-.088.054-.139.15a.433.433 0 0 0-.045.145.552.552 0 0 0-.005.075q0 .125.05.22.051.096.14.15a.37.37 0 0 0 .155.051.466.466 0 0 0 .05.003zm-2.367-.83h-.986v-.29h.986Zm7.406 0h-.986v-.29h.986zm.55.328-.11-.055a.971.971 0 0 1 .016-.177q.019-.104.063-.187a.542.542 0 0 1 .039-.063.38.38 0 0 1 .257-.157.588.588 0 0 1 .098-.007.498.498 0 0 1 .111.012.414.414 0 0 1 .078.025.405.405 0 0 1 .095.061.545.545 0 0 1 .061.061l-.209.214q-.037-.04-.084-.058a.264.264 0 0 0-.053-.013.362.362 0 0 0-.054-.004.347.347 0 0 0-.108.016.288.288 0 0 0-.112.068.256.256 0 0 0-.063.1q-.014.04-.02.09a.625.625 0 0 0-.004.074z" vector-effect="non-scaling-stroke" font-size="12" style="fill:url(#n);fill-opacity:1;stroke:none;stroke-width:.0274019;stroke-miterlimit:4;stroke-dasharray:none;stroke-opacity:1"/></svg>