<?xml version="1.0" standalone="no"?>
<!DOCTYPE svg PUBLIC "-//W3C//DTD SVG 20010904//EN"
 "http://www.w3.org/TR/2001/REC-SVG-20010904/DTD/svg10.dtd">
<svg version="1.0" xmlns="http://www.w3.org/2000/svg"
 width="1408.000000pt" height="1408.000000pt" viewBox="0 0 1408.000000 1408.000000"
 preserveAspectRatio="xMidYMid meet">
<metadata>
Created by potrace 1.14, written by Peter Selinger 2001-2017
</metadata>
<g transform="translate(0.000000,1408.000000) scale(0.100000,-0.100000)"
fill="#000000" stroke="none">
<path d="M10153 14053 c-18 -9 -33 -20 -33 -25 0 -4 -9 -8 -19 -8 -11 0 -21
-3 -23 -8 -1 -4 -43 -31 -93 -59 -49 -28 -146 -83 -215 -123 -69 -40 -145 -84
-170 -98 -25 -14 -56 -32 -70 -41 -14 -10 -46 -28 -72 -42 -27 -13 -48 -27
-48 -31 0 -5 -5 -8 -12 -8 -10 0 -54 -25 -198 -109 -8 -5 -107 -62 -220 -127
-113 -65 -208 -122 -212 -128 -4 -6 -8 -7 -8 -3 0 4 -17 -4 -37 -18 -21 -14
-41 -25 -46 -25 -4 0 -13 -5 -20 -10 -7 -6 -129 -78 -272 -160 -143 -82 -270
-156 -282 -164 -12 -9 -26 -16 -32 -16 -5 0 -16 -6 -23 -12 -8 -7 -27 -20 -43
-29 -17 -8 -106 -60 -200 -114 -93 -54 -190 -109 -215 -123 -25 -13 -52 -31
-61 -38 -8 -8 -23 -14 -32 -14 -9 0 -17 -4 -17 -8 0 -5 -15 -16 -32 -25 -38
-19 -76 -41 -307 -175 -31 -18 -75 -42 -98 -54 -24 -12 -43 -26 -43 -30 0 -4
-4 -8 -10 -8 -5 0 -89 -47 -187 -104 -98 -56 -194 -111 -213 -121 -19 -10 -37
-21 -40 -24 -5 -6 -51 -32 -125 -70 -16 -9 -32 -18 -35 -21 -7 -7 -34 -23
-120 -71 -41 -23 -78 -47 -82 -53 -4 -6 -8 -8 -8 -4 0 4 -24 -7 -52 -24 -29
-17 -132 -76 -228 -131 -96 -56 -176 -105 -178 -109 -2 -4 -11 -8 -21 -8 -9 0
-27 -9 -39 -20 -12 -11 -24 -20 -27 -20 -5 0 -195 -109 -300 -171 -16 -10 -41
-24 -55 -32 -14 -8 -86 -49 -160 -92 -178 -103 -210 -121 -240 -138 -107 -59
-126 -71 -135 -77 -10 -8 -34 -22 -135 -78 -25 -14 -46 -29 -48 -34 -2 -4 -9
-8 -16 -8 -7 0 -30 -11 -50 -25 -20 -13 -36 -22 -36 -19 0 4 -15 -5 -32 -18
-18 -14 -38 -27 -43 -29 -6 -2 -119 -66 -253 -143 l-242 -139 0 -1578 0 -1578
28 -14 c29 -15 34 -18 232 -132 74 -42 146 -85 160 -93 14 -9 27 -17 30 -17 6
-1 189 -107 240 -140 19 -12 45 -25 58 -29 12 -4 22 -12 22 -17 0 -5 4 -9 10
-9 5 0 63 -32 129 -70 66 -39 125 -70 131 -70 5 0 10 -3 10 -7 0 -5 10 -13 23
-19 12 -6 93 -52 181 -102 87 -51 162 -92 167 -92 5 0 9 -4 9 -10 0 -5 7 -10
15 -10 8 0 15 -5 15 -11 0 -5 4 -8 9 -5 5 3 14 -1 21 -9 7 -8 16 -15 21 -15 5
0 38 -18 74 -40 36 -22 70 -40 75 -40 6 0 10 -3 10 -8 0 -4 20 -16 45 -27 25
-11 45 -23 45 -27 0 -5 4 -8 9 -8 5 0 55 -27 110 -60 56 -33 104 -60 108 -60
3 0 14 -6 22 -14 9 -8 39 -26 66 -41 28 -14 66 -36 85 -47 45 -26 522 -301
745 -429 94 -54 175 -103 182 -108 7 -6 14 -11 17 -11 4 0 250 -139 291 -165
11 -7 25 -13 30 -14 6 -1 17 -8 25 -15 8 -7 39 -26 67 -42 29 -16 53 -32 53
-35 0 -4 -46 -33 -102 -65 -57 -31 -106 -62 -110 -68 -4 -6 -8 -8 -8 -4 0 3
-41 -18 -90 -48 -50 -30 -95 -54 -100 -54 -4 0 -10 -3 -12 -7 -1 -5 -19 -16
-38 -27 -84 -45 -126 -70 -141 -82 -8 -8 -19 -14 -23 -14 -8 0 -168 -92 -176
-100 -3 -4 -25 -17 -50 -29 -25 -12 -70 -38 -100 -56 -30 -19 -61 -34 -67 -35
-7 0 -13 -3 -13 -8 0 -4 -21 -18 -47 -31 -27 -14 -59 -32 -73 -42 -14 -9 -45
-27 -70 -41 -96 -54 -125 -70 -135 -78 -5 -4 -41 -24 -80 -45 -38 -21 -77 -44
-86 -51 -8 -8 -23 -14 -32 -14 -9 0 -17 -4 -17 -9 0 -5 -18 -17 -40 -27 -22
-10 -40 -21 -40 -26 0 -4 -5 -8 -11 -8 -6 0 -56 -27 -111 -59 -54 -33 -108
-63 -119 -66 -10 -4 -19 -11 -19 -16 0 -5 -3 -8 -7 -7 -5 1 -19 -5 -33 -14
-47 -30 -342 -198 -348 -198 -3 0 -13 -6 -21 -14 -16 -13 -113 -69 -158 -90
-13 -6 -23 -14 -23 -18 0 -5 -4 -8 -9 -8 -6 0 -60 -29 -121 -65 -61 -36 -115
-65 -121 -65 -5 0 -9 -4 -9 -10 0 -5 -4 -10 -9 -10 -5 0 -59 -29 -121 -65 -62
-36 -116 -65 -121 -65 -5 0 -9 -3 -9 -7 0 -5 -19 -17 -43 -28 -23 -11 -44 -22
-47 -26 -3 -3 -30 -19 -60 -36 -30 -16 -74 -42 -97 -56 -24 -15 -45 -27 -48
-27 -3 0 -24 -12 -47 -26 -68 -43 -142 -85 -160 -91 -10 -3 -18 -9 -18 -14 0
-5 -7 -9 -15 -9 -13 0 -15 -182 -15 -1580 l0 -1580 22 12 c13 7 25 15 28 18 7
7 79 48 115 66 17 8 44 23 60 34 17 11 37 23 45 27 17 8 279 159 300 173 8 6
22 13 30 17 8 4 38 22 67 40 29 18 54 33 57 33 3 0 35 18 71 40 36 22 67 40
69 40 4 0 134 76 201 117 11 7 32 17 48 24 15 6 27 15 27 20 0 5 4 9 9 9 8 0
135 71 249 138 29 18 56 32 61 32 4 0 18 9 31 20 13 11 29 20 36 20 7 0 19 6
26 13 11 10 153 94 303 177 22 13 54 31 70 41 17 11 37 22 45 26 8 4 21 13 28
20 8 7 18 11 23 8 5 -4 9 -2 9 2 0 5 17 17 38 28 20 11 55 31 77 44 22 14 54
32 70 41 25 14 247 141 295 171 92 55 191 109 199 109 6 0 11 4 11 9 0 5 8 11
18 14 9 4 35 17 57 31 22 14 56 33 75 44 56 31 94 53 287 166 101 58 186 106
190 106 3 0 14 6 22 14 9 8 39 26 66 41 28 14 64 34 80 44 17 10 48 28 70 41
22 12 65 37 96 56 31 19 62 34 68 34 6 0 11 5 11 11 0 5 4 8 9 5 5 -4 11 -2
13 2 3 8 86 57 383 227 50 28 164 94 255 147 91 53 181 105 200 116 65 36 165
93 180 102 8 5 46 27 84 49 38 23 73 41 77 41 5 0 9 5 9 10 0 6 4 10 9 10 9 0
99 49 161 88 14 9 26 15 27 14 2 -1 39 21 83 48 44 28 80 47 80 43 0 -5 4 -3
8 2 8 13 201 125 213 125 5 0 9 4 9 9 0 5 12 14 28 20 15 6 34 15 42 20 14 9
77 47 215 126 28 16 53 28 58 27 4 -1 7 2 7 7 0 5 8 11 18 15 9 3 24 10 32 16
28 19 292 170 299 170 3 1 16 9 29 19 l22 19 0 1575 0 1575 -82 47 c-46 26
-99 56 -118 67 -19 11 -103 60 -187 109 -84 49 -154 89 -157 89 -2 0 -41 23
-86 50 -45 28 -83 50 -86 50 -2 0 -33 18 -69 40 -36 22 -70 40 -75 40 -6 0
-10 5 -10 11 0 5 -4 8 -9 4 -5 -3 -12 -1 -15 4 -6 8 -115 74 -126 76 -3 0 -18
9 -35 19 -54 34 -76 47 -134 78 -31 17 -63 37 -72 44 -8 8 -23 14 -32 14 -9 0
-17 5 -17 10 0 6 -18 17 -40 26 -22 9 -40 20 -40 26 0 5 -4 6 -10 3 -5 -3 -10
-1 -10 4 0 6 -6 11 -14 11 -8 0 -21 6 -28 13 -7 7 -20 16 -28 20 -8 3 -37 20
-65 37 -27 16 -57 33 -65 36 -8 4 -49 27 -90 51 -104 62 -99 59 -157 90 -29
15 -53 31 -53 35 0 4 -4 8 -9 8 -7 0 -197 106 -361 203 -19 11 -60 34 -90 51
-30 16 -56 33 -58 38 -2 4 -8 8 -13 8 -6 0 -65 32 -132 71 -67 39 -129 74
-137 79 -8 5 -118 69 -244 142 -126 73 -245 142 -265 153 -20 11 -56 32 -81
46 -25 15 -61 36 -81 47 -76 42 -84 47 -89 52 -3 3 -26 17 -52 30 -27 14 -48
27 -48 31 0 4 160 99 344 203 59 33 214 122 236 136 15 9 335 193 375 216 78
44 253 146 265 154 8 6 27 16 43 23 15 6 27 15 27 19 0 4 4 8 9 8 6 0 52 25
104 55 51 30 99 55 105 55 5 0 12 4 14 8 2 5 24 20 49 34 79 44 94 53 99 58 3
3 16 11 30 17 14 7 43 24 65 37 22 14 56 33 75 44 19 10 123 70 230 132 107
62 209 120 225 129 17 9 32 19 33 24 2 4 7 7 12 7 5 0 48 23 97 51 48 29 113
65 143 82 30 17 57 33 60 37 3 3 21 14 40 23 19 10 44 23 55 30 33 21 88 53
135 79 40 22 75 42 193 111 18 11 93 54 167 97 74 43 155 89 180 104 25 14 71
40 103 58 l57 33 0 1572 c0 865 -3 1573 -7 1572 -5 0 -23 -8 -40 -16z"/>
</g>
</svg>
