<?xml version="1.0" standalone="no"?>
<!DOCTYPE svg PUBLIC "-//W3C//DTD SVG 20010904//EN"
 "http://www.w3.org/TR/2001/REC-SVG-20010904/DTD/svg10.dtd">
<svg version="1.0" xmlns="http://www.w3.org/2000/svg"
 width="1632.000000pt" height="1632.000000pt" viewBox="0 0 1632.000000 1632.000000"
 preserveAspectRatio="xMidYMid meet">
<metadata>
Created by potrace 1.14, written by Peter Selinger 2001-2017
</metadata>
<g transform="translate(0.000000,1632.000000) scale(0.100000,-0.100000)"
fill="#000000" stroke="none">
<path d="M11758 16296 c-20 -11 -92 -53 -160 -93 -68 -39 -127 -71 -132 -71
-5 0 -12 -4 -15 -9 -3 -5 -24 -19 -46 -32 -86 -51 -111 -65 -140 -79 -16 -9
-32 -18 -35 -22 -3 -3 -27 -19 -55 -34 -121 -68 -142 -80 -175 -103 -19 -12
-38 -23 -43 -23 -5 0 -15 -7 -24 -15 -8 -8 -19 -13 -24 -10 -5 4 -9 2 -9 -3 0
-5 -12 -15 -27 -23 -28 -14 -45 -23 -237 -135 -60 -35 -110 -64 -112 -64 -2 0
-27 -15 -57 -32 -129 -80 -337 -198 -348 -198 -5 0 -9 -4 -9 -8 0 -5 -12 -15
-27 -23 -16 -8 -142 -80 -282 -161 -139 -81 -262 -150 -272 -153 -11 -4 -19
-10 -19 -14 0 -9 -51 -35 -62 -33 -5 1 -8 -2 -8 -7 0 -5 -8 -11 -17 -15 -10
-3 -34 -15 -53 -27 -19 -12 -109 -64 -200 -116 -91 -53 -177 -104 -192 -114
-15 -11 -29 -19 -32 -19 -3 0 -45 -24 -93 -53 -48 -28 -109 -63 -135 -77 -27
-14 -48 -28 -48 -32 0 -5 -6 -8 -12 -8 -7 -1 -38 -16 -68 -35 -30 -19 -74 -44
-97 -56 -24 -12 -43 -26 -43 -31 0 -4 -8 -8 -19 -8 -10 0 -24 -7 -31 -15 -7
-8 -16 -15 -20 -15 -8 0 -309 -174 -327 -190 -7 -5 -14 -10 -17 -10 -2 0 -44
-23 -93 -51 -48 -29 -108 -63 -133 -77 -25 -14 -57 -33 -72 -43 -14 -11 -29
-19 -32 -19 -5 0 -64 -34 -136 -78 -14 -9 -27 -15 -29 -13 -2 1 -7 -1 -10 -6
-5 -8 -191 -117 -259 -152 -15 -8 -28 -18 -30 -23 -2 -4 -10 -8 -17 -8 -8 0
-20 -6 -27 -12 -8 -7 -23 -18 -33 -24 -72 -40 -114 -64 -145 -82 -19 -12 -51
-30 -70 -41 -19 -10 -141 -81 -270 -156 -129 -76 -253 -148 -275 -160 -22 -13
-145 -84 -274 -159 -129 -75 -238 -136 -242 -136 -5 0 -9 -4 -9 -9 0 -5 -8
-11 -17 -15 -10 -3 -31 -14 -48 -23 -16 -10 -76 -45 -133 -77 -56 -32 -105
-62 -108 -67 -3 -5 -10 -7 -15 -4 -5 4 -9 1 -9 -4 0 -6 -7 -11 -15 -11 -8 0
-15 -3 -15 -7 0 -5 -20 -17 -45 -28 -25 -11 -45 -22 -45 -26 0 -3 -18 -14 -40
-24 -22 -10 -40 -22 -40 -27 0 -4 -5 -8 -10 -8 -6 0 -103 -54 -216 -120 -114
-66 -210 -120 -215 -120 -5 0 -9 -4 -9 -10 0 -5 -4 -10 -9 -10 -6 0 -36 -15
-68 -34 -32 -19 -76 -44 -99 -57 -22 -13 -75 -44 -117 -69 l-77 -44 2 -1824
c3 -1813 3 -1825 23 -1836 11 -6 22 -13 25 -16 6 -6 27 -18 108 -62 31 -16 68
-38 82 -47 49 -32 65 -41 86 -50 11 -5 41 -23 66 -40 25 -17 49 -31 53 -31 4
0 36 -18 71 -40 35 -22 66 -40 69 -40 4 0 26 -14 50 -30 24 -16 46 -30 50 -30
4 0 66 -35 175 -100 80 -48 202 -118 225 -130 17 -8 32 -18 35 -21 5 -6 107
-64 147 -83 13 -6 23 -14 23 -18 0 -5 5 -8 10 -8 6 0 27 -11 48 -23 20 -13 69
-41 107 -62 39 -21 72 -41 75 -44 3 -4 16 -12 30 -19 14 -6 32 -16 40 -22 27
-17 152 -90 155 -90 1 0 44 -25 94 -55 51 -30 96 -55 100 -55 5 0 14 -7 21
-15 7 -8 16 -12 21 -9 5 3 9 1 9 -3 0 -5 19 -19 43 -31 23 -12 58 -32 77 -43
34 -20 66 -39 337 -198 67 -39 127 -71 132 -71 6 0 11 -4 11 -9 0 -5 8 -11 18
-14 9 -4 35 -17 57 -30 107 -65 405 -237 410 -237 3 0 11 -5 18 -10 20 -17
129 -80 138 -80 5 0 9 -3 9 -7 0 -5 10 -13 23 -18 31 -15 111 -59 117 -65 5
-5 17 -12 89 -52 20 -11 41 -24 46 -28 6 -4 30 -18 55 -32 49 -27 215 -123
240 -138 60 -38 172 -100 180 -100 6 0 10 -4 10 -8 0 -5 27 -22 59 -38 64 -30
65 -40 12 -67 -14 -8 -92 -53 -173 -100 -81 -48 -152 -87 -158 -87 -5 0 -10
-4 -10 -8 0 -5 -18 -16 -40 -26 -22 -10 -40 -22 -40 -27 0 -5 -9 -9 -20 -9
-11 0 -20 -3 -20 -8 0 -4 -28 -22 -62 -41 -73 -38 -139 -76 -153 -88 -5 -4
-21 -14 -35 -20 -14 -7 -46 -25 -72 -40 -56 -34 -247 -145 -387 -225 -204
-118 -247 -143 -252 -151 -3 -5 -10 -9 -15 -9 -5 -1 -18 -6 -29 -13 -50 -31
-196 -115 -200 -115 -3 0 -29 -16 -59 -35 -30 -19 -60 -35 -66 -35 -5 0 -10
-3 -10 -7 0 -5 -19 -17 -43 -28 -23 -11 -44 -22 -47 -25 -3 -3 -54 -34 -115
-69 -165 -95 -166 -96 -225 -131 -50 -30 -76 -45 -176 -101 -71 -39 -79 -44
-84 -49 -3 -3 -63 -39 -135 -79 -71 -41 -174 -100 -227 -133 -54 -32 -102 -58
-108 -58 -5 0 -10 -4 -10 -10 0 -5 -5 -10 -11 -10 -6 0 -49 -23 -97 -51 -48
-29 -107 -63 -132 -77 -25 -14 -61 -35 -80 -47 -19 -12 -55 -33 -80 -47 -25
-14 -150 -87 -279 -162 -128 -75 -237 -136 -242 -136 -5 0 -9 -4 -9 -9 0 -5
-11 -12 -25 -15 -14 -4 -25 -11 -25 -16 0 -6 -5 -10 -11 -10 -6 0 -35 -15 -65
-32 l-54 -33 0 -1822 c0 -1209 3 -1823 10 -1823 6 0 10 5 10 10 0 6 5 10 11
10 6 0 23 8 37 19 15 10 50 31 77 45 28 15 64 36 80 47 17 10 37 22 45 26 35
18 135 77 140 83 3 4 28 17 55 31 28 13 52 26 55 29 10 11 132 80 141 80 5 0
9 4 9 8 0 4 12 13 28 19 15 7 47 24 72 39 117 69 327 191 340 197 8 4 44 25
79 47 34 22 65 40 68 40 2 0 38 20 79 45 40 25 78 45 84 45 5 0 10 3 10 8 0 4
9 12 20 17 63 32 147 79 160 90 8 7 42 27 75 45 33 17 65 35 70 40 6 4 30 19
55 32 65 37 167 96 230 134 30 19 67 39 83 45 15 6 27 14 27 18 0 4 16 13 35
21 19 8 35 16 35 19 0 3 19 15 43 26 23 11 44 22 47 25 10 11 132 80 141 80 5
0 9 5 9 10 0 6 4 10 10 10 5 0 82 43 170 94 89 52 170 98 180 101 11 4 20 10
20 14 0 5 15 14 33 22 17 7 34 15 37 18 3 3 25 17 50 30 25 13 52 30 61 37 8
8 20 14 26 14 6 0 16 7 23 15 7 8 21 15 31 15 11 0 19 4 19 9 0 5 10 13 23 17
12 4 24 10 27 13 4 7 321 191 394 230 17 9 39 24 50 34 11 9 24 17 29 17 5 0
50 24 100 54 244 143 344 202 363 212 12 6 120 69 240 139 120 70 251 145 289
168 39 22 90 52 115 67 25 15 68 40 95 56 28 16 59 34 70 41 11 6 36 20 55 29
19 10 37 21 40 24 8 10 221 130 231 130 5 0 9 5 9 10 0 6 4 10 9 10 7 0 80 41
203 115 9 5 42 23 72 40 31 16 56 33 56 38 0 4 4 6 9 3 5 -3 14 1 21 9 7 8 16
12 21 9 5 -3 9 -1 9 4 0 5 18 17 40 27 22 10 40 21 40 24 0 3 14 13 32 20 18
8 51 27 74 43 23 15 45 28 48 28 4 0 25 12 48 26 68 43 142 85 161 91 9 3 17
9 17 14 0 5 7 9 15 9 8 0 15 5 15 12 0 6 3 8 6 5 4 -4 20 3 36 15 16 11 48 30
71 42 23 12 65 37 94 55 29 18 56 32 60 32 4 0 15 6 23 13 8 7 22 16 30 20 8
3 31 16 50 28 19 11 60 34 90 51 30 17 57 33 60 37 3 4 19 13 35 22 17 8 71
39 120 67 50 29 110 65 135 79 25 14 72 42 105 62 33 20 67 40 75 44 8 4 24
12 35 19 11 7 39 23 63 36 l42 25 0 1823 0 1823 -37 23 c-21 13 -63 37 -93 54
-30 16 -74 42 -97 56 -24 15 -45 27 -48 27 -2 0 -28 15 -57 34 -29 18 -55 33
-58 33 -3 -1 -31 16 -63 36 -31 20 -59 37 -61 37 -2 0 -34 18 -70 40 -36 22
-70 40 -76 40 -5 0 -10 3 -10 8 0 4 -12 13 -27 19 -16 7 -44 23 -63 35 -19 12
-37 22 -40 23 -5 1 -40 22 -90 54 -14 9 -38 23 -55 31 -16 8 -34 19 -40 23
-12 10 -209 124 -250 145 -16 9 -32 18 -35 21 -3 4 -16 12 -30 18 -42 21 -103
57 -137 81 -17 12 -34 22 -37 22 -6 0 -135 74 -176 101 -8 5 -23 12 -32 15
-10 4 -18 9 -18 13 0 3 -14 12 -32 20 -18 8 -67 36 -110 63 -43 26 -80 48 -83
48 -3 0 -24 12 -48 27 -23 15 -60 37 -82 49 -22 11 -56 30 -75 42 -19 12 -50
29 -67 39 -18 9 -33 20 -33 25 0 4 -8 8 -19 8 -10 0 -24 7 -31 15 -7 8 -19 15
-26 15 -8 0 -14 4 -14 8 0 4 -12 13 -27 19 -29 12 -104 54 -113 63 -5 5 -14
10 -89 52 -20 11 -56 32 -81 47 -72 42 -92 54 -166 95 -38 22 -70 44 -72 48
-2 4 -8 8 -12 8 -8 0 -212 115 -250 140 -8 6 -23 13 -32 16 -10 4 -18 9 -18
13 0 3 -15 12 -32 20 -18 8 -39 19 -47 25 -7 6 -42 27 -76 46 -34 19 -112 64
-171 99 -60 35 -134 77 -164 94 -30 16 -62 35 -70 41 -13 10 -42 27 -105 60
-11 6 -22 13 -25 16 -9 9 -85 51 -102 57 -10 3 -18 9 -18 14 0 5 -4 9 -9 9 -5
0 -37 16 -71 37 -44 26 -58 39 -48 45 7 5 50 30 96 56 46 26 91 52 100 57 9 6
49 28 87 50 39 21 72 41 75 45 3 3 23 14 45 25 22 11 46 26 53 33 7 6 20 12
28 12 8 0 14 5 14 10 0 6 4 10 9 10 9 0 259 143 278 160 7 5 14 10 16 10 2 0
44 23 93 51 49 29 105 61 124 71 19 11 60 35 90 53 99 59 144 85 175 101 17 8
42 22 57 32 22 14 253 149 348 203 14 8 27 16 30 19 3 3 14 10 25 16 53 29
125 70 292 168 101 58 187 106 193 106 5 0 10 5 10 10 0 6 6 10 14 10 8 0 21
6 28 13 12 12 138 86 163 96 6 2 12 7 15 11 3 4 28 19 55 34 28 14 73 39 100
56 28 16 70 41 95 55 25 13 68 38 95 55 28 16 86 50 130 75 44 25 98 57 120
71 22 14 48 27 58 31 9 3 17 9 17 14 0 5 5 9 10 9 9 0 189 102 285 161 17 10
41 24 55 31 14 7 60 34 103 60 43 27 80 48 83 48 2 0 23 12 47 27 23 15 51 32
62 38 111 61 207 117 215 125 3 3 26 16 51 29 25 13 53 29 62 36 16 11 17 134
15 1833 l-3 1820 -37 -22z"/>
</g>
</svg>
